<?xml version="1.0" encoding="UTF-8"?>
<svg version="1.1" xmlns="http://www.w3.org/2000/svg" xmlns:xlink="http://www.w3.org/1999/xlink" width="535" height="539" viewBox="105 105 439 435" preserveAspectRatio="xMidYMid slice">
    <title>applied-logomatic</title>
    <g id="LogoWrap" stroke="none" stroke-width="1" fill="none" fill-rule="evenodd">
      <rect fill="#111111" x="105" y="105" width="550" height="535"/>
      <circle id="Oval" fill="#111111" cx="328" cy="328" r="202"/>
      <g id="logos" transform="translate(328.353553, 328.112372) rotate(15.000000) translate(-328.353553, -328.112372) translate(67.853553, 67.112372)" stroke-linecap="round">
        <g id="Group" transform="translate(260.275947, 261.438968) rotate(63.000000) translate(-260.275947, -261.438968) translate(66.275947, 68.438968)">
          <path d="M192.592593,77.037037 C171.319402,77.037037 154.074074,59.7917089 154.074074,38.5185185 C154.074074,17.2453282 171.319402,0 192.592593,0 L192.592593,38.5185185 L192.592593,77.037037 Z" id="Path" fill="#111111"/>
          <path d="M192.592593,154.074074 C150.046212,154.074074 115.555556,119.583418 115.555556,77.037037 C115.555556,34.4906563 150.046212,0 192.592593,0 L192.592593,77.037037 L192.592593,154.074074 Z" id="Path" fill="#111111"/>
          <path d="M192.592593,308.148148 C107.499831,308.148148 38.5185185,239.166836 38.5185185,154.074074 C38.5185185,68.9813126 107.499831,0 192.592593,0 L192.592593,154.074074 L192.592593,308.148148 Z" id="Path" fill="#111111"/>
          <path d="M192.592593,231.111111 C128.773022,231.111111 77.037037,179.375127 77.037037,115.555556 C77.037037,51.7359845 128.773022,0 192.592593,0 L192.592593,115.555556 L192.592593,231.111111 Z" id="Path" fill="#111111"/>
          <path d="M192.592593,385.185185 C86.2266408,385.185185 2.73690535e-14,298.958544 0,192.592593 C0,86.2266408 86.2266408,2.73690535e-14 192.592593,0 L192.592593,192.592593 L192.592593,385.185185 Z" id="Path" fill="#111111"/>
          <path d="M192.592593,77.037037 C277.685354,77.037037 346.666667,146.01835 346.666667,231.111111 C346.666667,316.203873 277.685354,385.185185 192.592593,385.185185 L192.592593,231.111111 L192.592593,77.037037 Z" id="Path" fill="#111111"/>
          <path d="M192.592593,154.074074 C256.412164,154.074074 308.148148,205.810059 308.148148,269.62963 C308.148148,333.449201 256.412164,385.185185 192.592593,385.185185 L192.592593,269.62963 L192.592593,154.074074 Z" id="Path" fill="#111111"/>
          <path d="M192.592593,231.111111 C235.138973,231.111111 269.62963,265.601767 269.62963,308.148148 C269.62963,350.694529 235.138973,385.185185 192.592593,385.185185 L192.592593,308.148148 L192.592593,231.111111 Z" id="Path" fill="#111111"/>
          <path d="M192.592593,308.148148 C213.865783,308.148148 231.111111,325.393476 231.111111,346.666667 C231.111111,367.939857 213.865783,385.185185 192.592593,385.185185 L192.592593,346.666667 L192.592593,308.148148 Z" id="Path" fill="#111111"/>
          <path d="M192.592593,0 C298.958544,0 385.185185,86.2266408 385.185185,192.592593 C385.185185,298.958544 298.958544,385.185185 192.592593,385.185185 L192.592593,192.592593 L192.592593,0 Z" id="Path" fill="#111111"/>
          <path d="M190.592593,77.037037 C170.423972,77.037037 154.074074,59.7917089 154.074074,38.5185185 C154.074074,17.2453282 170.423972,-2.27373675e-13 190.592593,-2.27373675e-13" id="Path" stroke="#FFFFFF" stroke-width="9"/>
          <path d="M180.592593,154.074074 C144.673629,154.074074 115.555556,119.583418 115.555556,77.037037 C115.555556,34.4906563 144.673629,-2.27373675e-13 180.592593,-2.27373675e-13" id="Path" stroke="#FFFFFF" stroke-width="9"/>
          <path d="M180.592593,308.148148 C102.127248,308.148148 38.5185185,239.166836 38.5185185,154.074074 C38.5185185,68.9813126 102.127248,-2.27373675e-13 180.592593,-2.27373675e-13" id="Path" stroke="#FFFFFF" stroke-width="9"/>
          <path d="M180.592593,231.111111 C123.400438,231.111111 77.037037,179.375127 77.037037,115.555556 C77.037037,51.7359845 123.400438,0 180.592593,0" id="Path" stroke="#FFFFFF" stroke-width="9"/>
          <path d="M192.592593,385.185185 C86.2266408,385.185185 2.73690535e-14,298.958544 0,192.592593 C0,86.2266408 86.2266408,2.73690535e-14 192.592593,0" id="Path" stroke="#FFFFFF" stroke-width="9"/>
          <path d="M204.592593,77.037037 C283.057937,77.037037 346.666667,146.01835 346.666667,231.111111 C346.666667,316.203873 283.057937,385.185185 204.592593,385.185185" id="Path" stroke="#FFFFFF" stroke-width="9"/>
          <path d="M194.592593,154.074074 C257.307594,154.074074 308.148148,205.810059 308.148148,269.62963 C308.148148,333.449201 257.307594,385.185185 194.592593,385.185185" id="Path" stroke="#FFFFFF" stroke-width="9"/>
          <path d="M192.592593,231.111111 C235.138973,231.111111 269.62963,265.601767 269.62963,308.148148 C269.62963,350.694529 235.138973,385.185185 192.592593,385.185185" id="Path" stroke="#FFFFFF" stroke-width="9"/>
          <path d="M194.592593,308.148148 C214.761213,308.148148 231.111111,325.393476 231.111111,346.666667 C231.111111,367.939857 214.761213,385.185185 194.592593,385.185185" id="Path" stroke="#FFFFFF" stroke-width="9"/>
          <path d="M194.548888,0.415823382 C300.91484,0.415823382 387.14148,86.6424642 387.14148,193.008416 C387.14148,299.374368 300.91484,385.601009 194.548888,385.601009" id="Path" stroke="#FFFFFF" stroke-width="9"/>
        </g>
      </g>
      <rect id="Rectangle" fill="#FFFFFF" x="110" y="286" width="434" height="80"/>
      <path d="M127.92,349 L153.008,302.664 L171.504,302.664 L196.976,349 L181.168,349 L176.752,340.808 L147.952,340.808 L143.792,349 L127.92,349 Z M162.224,313.416 L153.264,330.824 L171.44,330.824 L162.224,313.416 Z M202.032,349 L202.032,302.664 L240.752,302.664 C254.256,302.664 257.52,309.448 257.52,318.536 L257.52,322.504 C257.52,329.416 254.512,337.352 244.464,337.352 L216.24,337.352 L216.24,349 L202.032,349 Z M216.24,314.184 L216.24,325.832 L238.32,325.832 C241.648,325.832 242.928,323.656 242.928,320.904 L242.928,319.112 C242.928,315.976 241.392,314.184 237.104,314.184 L216.24,314.184 Z M265.2,349 L265.2,302.664 L303.92,302.664 C317.424,302.664 320.688,309.448 320.688,318.536 L320.688,322.504 C320.688,329.416 317.68,337.352 307.632,337.352 L279.408,337.352 L279.408,349 L265.2,349 Z M279.408,314.184 L279.408,325.832 L301.488,325.832 C304.816,325.832 306.096,323.656 306.096,320.904 L306.096,319.112 C306.096,315.976 304.56,314.184 300.272,314.184 L279.408,314.184 Z M328.368,349 L328.368,302.664 L342.576,302.664 L342.576,337.096 L374.512,337.096 L374.512,349 L328.368,349 Z M381.296,349 L381.296,302.664 L395.504,302.664 L395.504,349 L381.296,349 Z M405.872,349 L405.872,302.664 L456.56,302.664 L456.56,313.416 L420.08,313.416 L420.08,320.84 L454.64,320.84 L454.64,330.44 L420.08,330.44 L420.08,337.864 L457.392,337.864 L457.392,349 L405.872,349 Z M466.48,349 L466.48,302.664 L509.36,302.664 C523.568,302.664 528.56,307.336 528.56,318.792 L528.56,332.872 C528.56,344.328 523.568,349 509.36,349 L466.48,349 Z M480.688,314.184 L480.688,337.096 L505.904,337.096 C511.984,337.096 514.352,335.368 514.352,328.776 L514.352,322.504 C514.352,315.912 511.984,314.184 505.904,314.184 L480.688,314.184 Z" id="APPLIED" fill="#111111"/>
    </g>
</svg>
