<?xml version="1.0" encoding="UTF-8"?>
<svg viewBox="0 0 405 400" version="1.1" xmlns="http://www.w3.org/2000/svg" xmlns:xlink="http://www.w3.org/1999/xlink">
  <!-- N.B. we vectorized the text because font handling in SVG has
       been completely banjaxed by the W3C and browser vendors. -->
  <defs>
    <!-- converted this path to a mask so it shows through whatever
         background color in beneath the SVG -->
    <mask id="science">
      <path d="M5,243 L5,395 L400,395 L400,243 L5,243 Z" stroke="#ffffff" stroke-width="10" fill="#ffffff" />
      <path d="M72.3830566,300.729492 L66.0153809,304.50293 C64.8249452,302.436513 63.6906792,301.08887 62.6125488,300.459961 C61.4894963,299.741207 60.0407804,299.381836 58.2663574,299.381836 C56.0876356,299.381836 54.2795482,299.999506 52.842041,301.234863 C51.4045338,302.44776 50.685791,303.975088 50.685791,305.816895 C50.685791,308.354993 52.5724909,310.398918 56.3459473,311.94873 L61.5344238,314.071289 C65.7571012,315.778329 68.8454492,317.86156 70.7995605,320.321045 C72.7536719,322.78053 73.7307129,325.795881 73.7307129,329.367188 C73.7307129,334.151391 72.1360023,338.104477 68.9465332,341.226562 C65.7346031,344.371109 61.7478265,345.943359 56.986084,345.943359 C52.471413,345.943359 48.7429346,344.606947 45.8005371,341.934082 C42.9030617,339.261217 41.0949743,335.499048 40.3762207,330.647461 L48.3273926,328.895508 C48.6867694,331.950211 49.3156693,334.061518 50.2141113,335.229492 C51.8313069,337.475597 54.1896818,338.598633 57.2893066,338.598633 C59.7375611,338.598633 61.7702556,337.778817 63.3874512,336.13916 C65.0046468,334.499504 65.8132324,332.421888 65.8132324,329.90625 C65.8132324,328.895503 65.672853,327.968998 65.3920898,327.126709 C65.1113267,326.28442 64.6733428,325.509525 64.078125,324.802002 C63.4829072,324.094479 62.7136278,323.431888 61.7702637,322.814209 C60.8268996,322.19653 59.7038639,321.606936 58.401123,321.04541 L53.3811035,318.956543 C46.2609507,315.946762 42.7009277,311.544463 42.7009277,305.749512 C42.7009277,301.841289 44.1945651,298.573255 47.1818848,295.945312 C50.1692044,293.294909 53.8864524,291.969727 58.3337402,291.969727 C64.3308405,291.969727 69.0138992,294.889619 72.3830566,300.729492 Z M127.389893,295.776855 L127.389893,305.075684 C122.852761,301.279766 118.158472,299.381836 113.306885,299.381836 C107.961155,299.381836 103.457782,301.302227 99.7966309,305.143066 C96.1130187,308.961445 94.2712402,313.633273 94.2712402,319.158691 C94.2712402,324.616727 96.1130187,329.221173 99.7966309,332.972168 C103.480243,336.723163 107.994846,338.598633 113.340576,338.598633 C116.103285,338.598633 118.45043,338.149419 120.38208,337.250977 C121.46021,336.801756 122.577631,336.195316 123.734375,335.431641 C124.891119,334.667965 126.109613,333.747076 127.389893,332.668945 L127.389893,342.13623 C122.897683,344.674329 118.180933,345.943359 113.239502,345.943359 C105.804894,345.943359 99.4597431,343.349147 94.2038574,338.160645 C88.9704328,332.92722 86.3537598,326.61576 86.3537598,319.226074 C86.3537598,312.600065 88.5436793,306.692897 92.923584,301.504395 C98.3142359,295.147917 105.288287,291.969727 113.845947,291.969727 C118.517846,291.969727 123.032449,293.238757 127.389893,295.776855 Z M150.895264,292.980469 L150.895264,345 L143.045166,345 L143.045166,292.980469 L150.895264,292.980469 Z M197.849854,300.358887 L176.994873,300.358887 L176.994873,312.858398 L197.243408,312.858398 L197.243408,320.236816 L176.994873,320.236816 L176.994873,337.621582 L197.849854,337.621582 L197.849854,345 L169.144775,345 L169.144775,292.980469 L197.849854,292.980469 L197.849854,300.358887 Z M213.909424,345 L213.909424,289.442871 L251.845947,329.131348 L251.845947,292.980469 L259.696045,292.980469 L259.696045,348.166992 L221.759521,308.57959 L221.759521,345 L213.909424,345 Z M316.825439,295.776855 L316.825439,305.075684 C312.288307,301.279766 307.594018,299.381836 302.742432,299.381836 C297.396702,299.381836 292.893329,301.302227 289.232178,305.143066 C285.548566,308.961445 283.706787,313.633273 283.706787,319.158691 C283.706787,324.616727 285.548566,329.221173 289.232178,332.972168 C292.91579,336.723163 297.430393,338.598633 302.776123,338.598633 C305.538832,338.598633 307.885977,338.149419 309.817627,337.250977 C310.895757,336.801756 312.013178,336.195316 313.169922,335.431641 C314.326666,334.667965 315.54516,333.747076 316.825439,332.668945 L316.825439,342.13623 C312.333229,344.674329 307.61648,345.943359 302.675049,345.943359 C295.240441,345.943359 288.89529,343.349147 283.639404,338.160645 C278.40598,332.92722 275.789307,326.61576 275.789307,319.226074 C275.789307,312.600065 277.979226,306.692897 282.359131,301.504395 C287.749783,295.147917 294.723834,291.969727 303.281494,291.969727 C307.953393,291.969727 312.467996,293.238757 316.825439,295.776855 Z M361.185791,300.358887 L340.330811,300.358887 L340.330811,312.858398 L360.579346,312.858398 L360.579346,320.236816 L340.330811,320.236816 L340.330811,337.621582 L361.185791,337.621582 L361.185791,345 L332.480713,345 L332.480713,292.980469 L361.185791,292.980469 L361.185791,300.358887 Z"/>
    </mask>
  </defs>
  <g stroke="none" stroke-width="1" fill="none" fill-rule="evenodd">
    <polygon id="top-tri" stroke="#000000" stroke-width="5" fill="#000000" points="202.5 198 39 162 366 162"/>
    <path d="M5,5 L5,157 L400,157 L400,5 L5,5 Z" id="top-box" stroke="#000000" stroke-width="10"/>
    <path d="M5,243 L5,395 L400,395 L400,243 L5,243 Z" id="bottom-box"
          stroke="#000000" stroke-width="10" fill="#000000" mask="url(#science)"/>
    <path d="M5.5,160 L399.5,242" id="Line" stroke="#000000" stroke-width="9" stroke-linecap="square"/>
    <path d="M4.5,242 L403.5,159 L4.5,242 Z" id="Line" stroke="#000000" stroke-width="9" stroke-linecap="square"/>
    <path id="applied" fill="#000000" d="M78.1003608,97.3657227 L55.8303412,97.3657227 L50.0354194,110 L41.5788764,110 L67.3191108,54.7124023 L92.1496772,110 L83.5583686,110 L78.1003608,97.3657227 Z M74.8996772,89.9873047 L67.1843452,72.2993164 L59.0984077,89.9873047 L74.8996772,89.9873047 Z M116.152069,88.8754883 L116.152069,110 L108.301972,110 L108.301972,57.9804688 L117.196503,57.9804688 C121.553947,57.9804688 124.844441,58.2836884 127.068085,58.8901367 C129.31419,59.4965851 131.290733,60.6420814 132.997772,62.3266602 C135.985092,65.2465966 137.478729,68.9301535 137.478729,73.3774414 C137.478729,78.139184 135.884019,81.9125837 132.69455,84.6977539 C129.505081,87.4829241 125.203854,88.8754883 119.790741,88.8754883 L116.152069,88.8754883 Z M116.152069,81.5981445 L119.083222,81.5981445 C126.293219,81.5981445 129.898163,78.8242465 129.898163,73.2763672 C129.898163,67.9081763 126.180915,65.2241211 118.746308,65.2241211 L116.152069,65.2241211 L116.152069,81.5981445 Z M163.064618,88.8754883 L163.064618,110 L155.21452,110 L155.21452,57.9804688 L164.109051,57.9804688 C168.466495,57.9804688 171.756989,58.2836884 173.980633,58.8901367 C176.226738,59.4965851 178.203281,60.6420814 179.910321,62.3266602 C182.89764,65.2465966 184.391278,68.9301535 184.391278,73.3774414 C184.391278,78.139184 182.796567,81.9125837 179.607098,84.6977539 C176.417629,87.4829241 172.116402,88.8754883 166.703289,88.8754883 L163.064618,88.8754883 Z M163.064618,81.5981445 L165.99577,81.5981445 C173.205767,81.5981445 176.810711,78.8242465 176.810711,73.2763672 C176.810711,67.9081763 173.093463,65.2241211 165.658856,65.2241211 L163.064618,65.2241211 L163.064618,81.5981445 Z M209.977166,57.9804688 L209.977166,102.621582 L225.273064,102.621582 L225.273064,110 L202.127068,110 L202.127068,57.9804688 L209.977166,57.9804688 Z M250.218816,57.9804688 L250.218816,110 L242.368718,110 L242.368718,57.9804688 L250.218816,57.9804688 Z M301.073259,65.3588867 L280.218278,65.3588867 L280.218278,77.8583984 L300.466813,77.8583984 L300.466813,85.2368164 L280.218278,85.2368164 L280.218278,102.621582 L301.073259,102.621582 L301.073259,110 L272.36818,110 L272.36818,57.9804688 L301.073259,57.9804688 L301.073259,65.3588867 Z M321.032682,110 L321.032682,57.9804688 L331.948698,57.9804688 C337.182122,57.9804688 341.314893,58.4970651 344.347135,59.5302734 C347.603987,60.5410207 350.557571,62.2592652 353.207975,64.6850586 C358.576166,69.5815675 361.260221,76.0165617 361.260221,83.9902344 C361.260221,91.9863681 358.463862,98.4550534 352.871061,103.396484 C350.06343,105.8672 347.121076,107.585444 344.043912,108.55127 C341.168898,109.517095 337.092279,110 331.813932,110 L321.032682,110 Z M328.88278,102.621582 L332.420377,102.621582 C335.946762,102.621582 338.877885,102.25098 341.213834,101.509766 C343.549783,100.723629 345.66109,99.4770593 347.547819,97.7700195 C351.411119,94.2436347 353.34274,89.6504189 353.34274,83.9902344 C353.34274,78.2851277 351.43358,73.6582209 347.615201,70.109375 C344.178661,66.942367 339.11377,65.3588867 332.420377,65.3588867 L328.88278,65.3588867 L328.88278,102.621582 Z"/>
  </g>
</svg>
